<svg width="130" height="66" viewBox="0 0 130 66" fill="none" xmlns="http://www.w3.org/2000/svg">
<path d="M38.6702 30.8429C39.2917 29.5839 39.6881 28.2259 39.8416 26.8303C39.9443 25.9008 39.9346 24.9623 39.8129 24.0352C39.6902 23.1128 39.4632 22.2074 39.1363 21.3363C38.4901 19.6 37.0564 17.4585 36.3297 16.6603C35.603 15.862 35.1697 15.5036 34.3797 15.0342C34.4553 15.0704 36.0847 15.5143 37.1526 16.2007C38.1843 16.8633 39.415 17.7627 39.415 17.7627L38.4186 15.9862C38.3956 15.9039 38.3783 15.8513 38.3578 15.7872L38.2969 15.6039C38.2558 15.483 38.2147 15.3647 38.1695 15.2463C38.0813 15.0101 37.9887 14.7771 37.8916 14.5475C37.6985 14.0871 37.4872 13.6366 37.2628 13.1935C36.8127 12.3086 36.3035 11.455 35.7386 10.6385C34.6116 9.00345 33.2628 7.53293 31.731 6.26913C30.1977 5.01347 28.4906 3.9867 26.6628 3.22084C25.7537 2.84131 24.8199 2.52407 23.8677 2.27134C22.9184 2.02126 21.9548 1.82909 20.9822 1.69588C19.0429 1.4213 15.7077 1.22811 12.9537 1.99265C10.1998 2.75719 9.00774 3.42225 7.38988 4.48521C6.58461 5.01904 5.80829 5.59532 5.06421 6.21158C4.31745 6.82104 3.61524 7.48314 2.96296 8.1928C3.30248 7.85246 3.66256 7.53514 4.03167 7.22439C4.40079 6.91364 4.77155 6.61605 5.15875 6.32832C5.92512 5.75429 6.72088 5.22058 7.54279 4.72937C9.18696 3.74287 10.7095 3.19289 12.5665 2.86488C14.4236 2.53687 15.9494 2.37163 18.3137 2.46288C20.8038 2.56235 23.1336 3.10328 23.5964 3.23975C24.4958 3.50757 25.3768 3.83381 26.2337 4.21639C27.9405 4.98222 29.5278 5.99035 30.9467 7.20959C32.3609 8.42814 33.599 9.83723 34.6255 11.3965C35.1388 12.1737 35.6009 12.9835 36.0091 13.8208C36.122 14.0537 36.2302 14.2883 36.3338 14.5245C36.1603 14.4365 34.5787 13.6292 32.6764 13.4813C30.774 13.3333 29.5138 13.4303 29.5138 13.4303C29.5138 13.4303 33.0208 15.6779 34.3797 16.9126C35.7386 18.1474 37.0104 20.395 37.5595 21.9158C38.4041 24.1892 38.412 26.689 37.5817 28.9677C37.4452 29.3425 37.2874 29.7092 37.109 30.066C37.0194 30.2427 36.9249 30.417 36.8262 30.5855C36.7769 30.6677 36.7259 30.75 36.675 30.8322L36.5977 30.9489L36.5599 31.0032L36.5311 31.0434L36.2483 31.4364L36.4078 31.8754C36.7881 32.9186 37.1041 33.9841 37.354 35.0659C37.6014 36.1441 37.7711 37.2386 37.8621 38.3411C38.0418 40.5436 37.8894 42.7606 37.4099 44.9177C36.9234 47.0791 36.1308 49.16 35.0563 51.0974C34.5523 52.0099 33.1951 54.1703 32.5826 55.0146L32.8424 51.7821C32.8424 51.7821 30.571 54.1703 29.3962 55.336C28.2215 56.5017 27.3723 57.2893 26.3282 58.2174C25.2842 59.1455 24.1908 60.026 23.0604 60.8358C22.4948 61.2468 21.9186 61.634 21.3341 62.0023C21.0414 62.1881 20.7446 62.3656 20.4462 62.5375C20.2974 62.6197 20.147 62.7068 19.9974 62.7841L19.865 62.8548L19.7285 62.7857C19.5715 62.7035 19.4153 62.6213 19.2591 62.5391C18.9476 62.3747 18.6368 62.1963 18.3285 62.0171C17.7136 61.6581 17.1077 61.2808 16.5109 60.8851C15.3167 60.0958 14.1643 59.2452 13.0581 58.3366C11.9509 57.4297 10.894 56.4628 9.89231 55.4404C8.89594 54.4136 6.83909 52.1093 6.83909 52.1093L6.88923 55.2333C6.65138 54.9592 6.41955 54.6797 6.19375 54.3947C5.52721 53.5511 4.91227 52.6679 4.35228 51.7501C2.09538 48.0354 0.786819 43.8226 0.541926 39.483C0.479858 38.3959 0.479858 37.3063 0.541926 36.2193C0.605501 35.1293 0.724583 34.0433 0.898711 32.9655C0.664054 34.0351 0.489227 35.117 0.375043 36.2061C-0.234062 41.7349 0.913906 47.3151 3.65598 52.1545C4.19892 53.1237 4.80301 54.0573 5.46456 54.9496C5.79723 55.3958 6.14552 55.8309 6.50943 56.2551C6.69193 56.4672 6.87909 56.6757 7.07091 56.8807C7.16628 56.9837 7.2641 57.0854 7.3644 57.1857C7.46551 57.2885 7.56088 57.383 7.67843 57.4907L8.99377 58.6992C8.99377 58.6992 8.60081 57.6304 8.43146 56.8906C8.32885 56.4648 8.30296 56.0241 8.35501 55.5892C8.68878 55.9789 8.64192 55.918 8.99212 56.2905C10.0037 57.3707 11.074 58.3944 12.1982 59.3568C12.7606 59.8377 13.3319 60.3063 13.9197 60.7544C14.5075 61.2024 15.1051 61.6389 15.7159 62.0574C16.3268 62.4758 16.9491 62.8795 17.5821 63.265C17.9002 63.4574 18.22 63.6456 18.5456 63.8281C18.71 63.9194 18.8744 64.0098 19.0388 64.0978L19.2854 64.2293C19.3676 64.2737 19.4498 64.3115 19.5485 64.3617L19.8601 64.5138L20.1757 64.3641L20.3147 64.2984L20.4429 64.2359L20.6895 64.1085C20.854 64.0263 21.0184 63.935 21.1762 63.8454C21.4974 63.6667 21.8133 63.4823 22.1241 63.2921C22.7472 62.9132 23.3572 62.5128 23.9491 62.0968C25.1362 61.2644 26.2806 60.3726 27.378 59.4251C28.4741 58.4769 29.5245 57.4825 30.5291 56.4417C30.7231 56.2406 30.9149 56.0378 31.1045 55.8334C31.0363 56.3568 30.9394 56.876 30.8143 57.3888C30.6105 58.2166 30.1731 59.6158 30.1731 59.6158L32.2826 57.6428L32.3771 57.554L32.4593 57.4718L32.6237 57.3074C32.7314 57.1989 32.835 57.0903 32.9386 56.9785C33.1441 56.7593 33.3444 56.5371 33.5395 56.3118C33.9292 55.8613 34.3013 55.3977 34.6559 54.9209C35.3668 53.97 36.0123 52.9718 36.5878 51.9334C37.7498 49.857 38.6098 47.6257 39.142 45.3066C39.6653 42.9751 39.8288 40.5773 39.6271 38.1964C39.432 35.9748 38.9535 33.7873 38.2032 31.6871C38.2484 31.614 38.2936 31.5408 38.3364 31.4676C38.4556 31.2605 38.5658 31.0525 38.6702 30.8429Z" fill="#C68C43"/>
<path d="M40.179 24.192C40.0557 23.2672 39.8863 22.085 39.5599 21.2194C38.9138 19.4831 38.3613 18.2862 37.6338 17.4879C36.9063 16.6897 35.9033 15.7936 35.1133 15.3275C35.1889 15.3637 36.6087 16.0337 37.6766 16.7201C38.7074 17.3827 39.9102 18.1719 39.9102 18.1719C39.9102 18.1719 39.1571 13.9143 37.4735 11.0707C35.9066 8.42527 33.5546 6.43912 32.0477 5.35725C30.5409 4.27539 28.2768 2.98308 25.9232 2.21854C23.5696 1.454 21.8934 1.22382 19.8086 1.052C17.7238 0.880187 14.9196 1.09228 12.1632 1.85682C9.40674 2.62136 8.17444 3.54949 7.07613 4.35102C5.97783 5.15256 5.66626 5.57264 4.9231 6.18756C4.17993 6.80248 3.60776 7.47741 2.95996 8.1918C3.29948 7.85146 3.65955 7.53413 4.02867 7.22338C4.39779 6.91264 4.76855 6.61504 5.15575 6.32731C5.92212 5.75328 6.71788 5.21957 7.53979 4.72836C9.18396 3.74186 10.7065 3.19189 12.5635 2.86387C14.4206 2.53586 15.9464 2.37062 18.3107 2.46188C20.8008 2.56135 23.1306 3.10228 23.5934 3.23875C24.4928 3.50656 25.3738 3.8328 26.2307 4.21538C27.9375 4.98122 29.5248 5.98934 30.9437 7.20859C32.3579 8.42714 33.596 9.83623 34.6225 11.3955C35.1364 12.1729 35.5991 12.983 36.0077 13.8206C36.1206 14.0535 36.2289 14.2881 36.3324 14.5243C36.159 14.4363 34.5773 13.6291 32.675 13.4811C30.7727 13.3331 29.5124 13.4301 29.5124 13.4301C29.5124 13.4301 33.0194 15.6777 34.3784 16.9125C35.7373 18.1472 37.009 20.3948 37.5582 21.9157C38.4028 24.1891 38.4106 26.6888 37.5804 28.9675C37.4439 29.3423 37.286 29.709 37.1077 30.0658C37.0181 30.2425 36.9235 30.4168 36.8249 30.5854C36.7756 30.6676 36.7246 30.7498 36.6736 30.832L36.5963 30.9487L36.5585 31.003L36.5297 31.0433L36.247 31.4362V31.4428C36.9015 31.5557 37.5634 31.6217 38.2273 31.6401C38.2627 31.5825 38.6014 31.1847 38.705 30.975C38.916 30.5756 39.1026 30.1638 39.264 29.7419C39.578 28.8647 39.8148 28.1117 39.9792 27.2469C40.1436 26.382 40.3006 25.1169 40.179 24.192Z" fill="#C18139"/>
<path d="M26.8742 38.8171C25.4841 39.8735 23.8802 40.1275 23.8802 40.1275C25.0147 39.3054 27.2064 36.9962 25.9354 34.4913C24.6645 31.9864 19.8101 30.3628 19.8101 30.3628C19.8101 30.3628 14.9598 31.9872 13.6856 34.4913C12.4113 36.9954 14.6055 39.3054 15.7408 40.1275C15.7408 40.1275 14.1361 39.8727 12.7467 38.8163C12.7467 38.8163 9.34248 41.7906 8.95117 45.2351C8.95117 45.2351 12.0619 42.9456 19.8109 42.9456C27.5599 42.9456 30.6714 45.2351 30.6714 45.2351C30.2793 41.7914 26.8742 38.8171 26.8742 38.8171ZM20.3798 38.7974L19.8117 39.737L19.2445 38.7974C15.5854 38.5236 14.9203 35.8033 14.9203 35.8033L16.7396 34.747L16.2463 33.8862L19.8076 36.0385L23.3738 33.8862L22.8806 34.747L24.6998 35.8033C24.6998 35.8033 24.0364 38.5236 20.3773 38.7974H20.3798Z" fill="white"/>
<path d="M29.8282 20.8906C29.8282 20.8906 33.0343 21.2622 34.5634 22.8086C34.5634 22.8086 32.1958 18.3857 27.186 18.3857C22.1762 18.3857 19.8086 21.106 19.8086 21.106C19.8086 21.106 17.441 18.3857 12.4321 18.3857C7.42311 18.3857 5.05469 22.8086 5.05469 22.8086C6.58047 21.2622 9.78989 20.8906 9.78989 20.8906C7.24636 21.6363 5.28734 24.6722 5.30871 28.3091C5.33009 31.946 6.73749 34.5512 8.12681 34.8858C9.51614 35.2204 10.2593 33.8878 12.3342 31.9263C14.4092 29.9648 16.5211 29.6565 16.5211 29.6565C14.4281 28.7169 13.0379 29.2652 11.6486 29.7149C10.2593 30.1646 9.12482 30.3216 8.32247 28.698C7.52012 27.0743 9.04673 25.2929 9.04673 25.2929C8.18518 25.4302 7.36392 26.115 7.36392 26.115C8.14654 24.2554 9.14455 23.7465 10.7682 23.6882C12.3918 23.6298 13.1366 24.0598 14.8383 25.0191C16.54 25.9785 18.028 27.0933 18.9093 26.369C19.7905 25.6447 18.4785 23.199 18.4785 23.199C19.437 23.8255 19.8086 25.1359 19.8086 25.1359C19.8086 25.1359 20.181 23.8255 21.1396 23.199C21.1396 23.199 19.8242 25.6447 20.7088 26.369C21.5934 27.0933 23.0772 25.9777 24.7798 25.0191C26.4823 24.0606 27.2255 23.6298 28.8499 23.6882C30.4743 23.7465 31.4715 24.2612 32.2517 26.1174C32.2517 26.1174 31.4296 25.4326 30.5689 25.2954C30.5689 25.2954 32.0955 27.076 31.2931 28.7004C30.4908 30.3249 29.3563 30.1678 27.967 29.7173C26.5777 29.2668 25.1875 28.7193 23.0937 29.659C23.0937 29.659 25.2072 29.9722 27.2814 31.9287C29.3555 33.8853 30.0995 35.2171 31.4888 34.8882C32.8781 34.5594 34.2839 31.9526 34.3069 28.3116C34.3299 24.6706 32.3717 21.6363 29.8282 20.8906Z" fill="white"/>
<path d="M27.1868 18.3873C22.1778 18.3873 19.8094 21.1076 19.8094 21.1076C19.8094 21.1076 17.4418 18.3873 12.4328 18.3873C8.70387 18.3873 6.43986 20.8371 5.52734 22.0867C7.47733 20.1869 12.6869 16.5623 19.8119 22.7871C26.9377 16.5623 32.1472 20.1869 34.0972 22.0867C33.1798 20.8371 30.9158 18.3873 27.1868 18.3873Z" fill="#C4C4C4"/>
<path d="M11.6479 29.7174C10.2586 30.1679 9.12413 30.3241 8.32177 28.7005C7.51942 27.0769 9.04603 25.2954 9.04603 25.2954C8.35548 25.4047 7.69206 25.8659 7.4553 26.0452C6.7557 27.2117 6.27314 29.3253 7.91731 32.8002C7.91731 32.8002 6.50908 32.3851 5.41406 29.9583C5.77167 32.7172 6.95383 34.6039 8.12694 34.8842C9.51626 35.213 10.2594 33.8862 12.3344 31.9247C14.4093 29.9632 16.5212 29.6549 16.5212 29.6549C14.4274 28.7194 13.0372 29.2677 11.6479 29.7174Z" fill="#C4C4C4"/>
<path d="M31.6667 32.8002C33.3298 29.285 32.8177 27.1624 32.1082 26.0049C31.8345 25.8051 31.2138 25.3973 30.5709 25.2954C30.5709 25.2954 32.0975 27.076 31.2952 28.7005C30.4928 30.3249 29.3583 30.1679 27.969 29.7174C26.5797 29.2669 25.1895 28.7194 23.0957 29.659C23.0957 29.659 25.2093 29.9722 27.2834 31.9288C29.3575 33.8854 30.1015 35.2171 31.4908 34.8883C32.6722 34.6047 33.8675 32.6802 34.2111 29.8736C33.1095 32.376 31.6667 32.8002 31.6667 32.8002Z" fill="#C4C4C4"/>
<path d="M30.6647 45.1945C29.4151 44.2376 26.2296 42.2646 20.9452 42.0459C13.9304 41.7524 13.2842 42.8967 12.4917 41.8987C11.6992 40.9007 15.7398 40.1271 15.7398 40.1271C15.7398 40.1271 14.1351 39.8723 12.7458 38.8159C12.7458 38.8159 9.34151 41.7902 8.9502 45.2347C8.9502 45.2347 12.061 42.9452 19.8099 42.9452C27.5589 42.9452 30.6705 45.2347 30.6705 45.2347C30.6696 45.2241 30.6664 45.2084 30.6647 45.1945Z" fill="#C4C4C4"/>
<path d="M38.2026 31.6855C38.2026 31.6855 39.1069 35.5271 39.0584 39.2734C39.0099 43.0196 37.7677 46.7979 37.7677 46.7979C37.6978 47.0445 37.6148 47.2788 37.5391 47.5197L37.4224 47.8798C37.3821 47.999 37.3402 48.1174 37.2942 48.2357C37.2062 48.4733 37.124 48.7117 37.0311 48.9468C36.6621 49.8931 36.2332 50.8149 35.747 51.7066L35.6557 51.871L35.5596 52.0354L35.3656 52.3642C35.3014 52.4744 35.2299 52.5821 35.1625 52.6931C35.0951 52.8041 35.0269 52.9109 34.9529 53.017L34.735 53.3384L34.5065 53.6549C34.4243 53.7593 34.347 53.8637 34.2599 53.9689C34.1727 54.0742 34.0954 54.1695 33.982 54.2978L31.5462 57.1151C31.6776 56.5851 31.7762 56.0475 31.8413 55.5054C31.9449 54.6644 31.9835 54.0914 32.0452 53.6623C31.9153 53.918 31.3579 54.5354 29.3775 56.5922C27.5114 58.5299 25.1849 60.3565 24.3874 60.9147C22.3142 62.3706 19.8528 63.6638 19.8528 63.6638C18.3597 62.9253 16.9166 62.0896 15.5328 61.1622C13.5022 59.786 11.4717 57.9963 10.4819 57.0246C8.43163 55.0113 7.5668 53.8752 7.5668 53.8752C7.55162 54.3863 7.56809 54.8978 7.61612 55.4068C7.69833 56.27 7.82 56.8931 7.82 56.8931L6.55317 55.5194C5.26498 53.9624 4.14253 52.2754 3.204 50.4858C2.73888 49.5912 2.32498 48.6709 1.9643 47.7293L1.82783 47.3775C1.78098 47.2607 1.74563 47.1399 1.70206 47.0215L1.45543 46.3063C1.31157 45.8246 1.15948 45.3445 1.04439 44.8553C0.54688 42.9092 0.277073 40.9118 0.240391 38.9034C0.234636 38.5836 0.455777 35.3734 0.510034 35.0923C0.32671 36.0171 0.103925 38.6412 0.108857 39.1583C0.122833 40.0338 -0.00623427 42.7311 0.565114 45.236C1.13646 47.7408 2.63923 51.5306 3.94799 53.6796C5.25674 55.8285 9.10821 58.9902 9.10821 58.9902C9.10821 58.9902 8.77937 57.9963 8.65524 57.2449C8.5311 56.4936 8.49411 56.1138 8.49411 56.1138C8.82294 56.5026 9.98044 58.3778 12.6481 60.539C15.3158 62.7003 19.8504 65.2471 19.8504 65.2471C19.8504 65.2471 23.6911 62.9576 26.3679 60.9016C29.0446 58.8455 30.5432 56.6391 30.7339 56.4352C30.6439 57.0935 30.5154 57.746 30.3492 58.3893C30.1166 59.2056 29.9077 59.8493 29.9077 59.8493C29.9077 59.8493 32.8788 57.5927 34.1004 56.0735C35.322 54.5543 36.5436 52.7975 37.1174 51.7584C38.2683 49.6818 38.8397 48.2012 39.3609 45.8739C39.8821 43.5466 40.169 40.6948 39.9766 38.3198C39.6733 34.5242 38.2026 31.6855 38.2026 31.6855Z" fill="#996837"/>
<path d="M39.6504 24.1364C39.5271 23.2115 39.0289 21.865 38.7033 20.9993C38.0572 19.2631 36.7048 17.4175 35.5868 16.343C34.4688 15.2686 32.2459 14.1234 32.2459 14.1234C32.2459 14.1234 34.0544 14.3585 35.3953 14.772C36.2362 15.0384 37.0419 15.4053 37.7949 15.8646C37.7949 15.8646 36.6909 12.7004 35.4216 10.9091C34.1523 9.11774 32.6627 7.75884 31.1303 6.50434C29.5979 5.24984 27.7713 4.0981 26.0794 3.43139C24.3876 2.76468 22.3718 2.12674 18.508 1.97548C16.9337 1.913 15.2197 1.89327 12.8151 2.43091C10.4105 2.96856 9.2563 3.48565 7.34824 4.69575C5.44019 5.90586 3.26167 7.85749 2.95996 8.19208C3.09095 8.06109 3.22467 7.93339 3.36114 7.80899C3.6949 7.49413 5.19849 6.16482 7.44607 4.83551C9.58349 3.57279 11.5105 2.83456 15.4088 2.55834C19.3071 2.28212 22.8651 2.88717 24.8668 3.66157C29.0669 5.29588 32.5122 8.69026 33.3384 9.65785C35.0451 11.6563 36.2905 14.5016 36.2905 14.5016C35.8211 14.2484 35.1569 13.8044 33.1929 13.5364C31.973 13.3753 30.7397 13.3392 29.5124 13.4287C29.5124 13.4287 32.5229 15.3056 34.218 16.7878C35.9132 18.27 37.0345 20.6721 37.2145 21.0741C37.3987 21.4926 38.4049 23.9358 38.1624 26.3207C37.9084 28.8173 36.3966 31.2532 36.2469 31.4357L36.2519 31.4496C36.2892 31.4561 36.3256 31.4669 36.3604 31.4817C36.5071 31.5432 36.6593 31.5905 36.815 31.6231C36.8841 31.6338 36.9523 31.6428 37.0213 31.6502C37.4135 31.6922 37.813 31.6502 38.2035 31.6897V31.6856C38.2487 31.6124 38.2939 31.5393 38.3367 31.4661C38.4559 31.2606 38.566 31.055 38.6704 30.8429C38.8773 30.4239 39.0595 29.9933 39.2163 29.5531C39.5287 28.6743 39.606 27.8193 39.7096 26.8904C39.8021 25.9734 39.7822 25.0485 39.6504 24.1364V24.1364Z" fill="url(#paint0_linear_1286_12)"/>
<path fill-rule="evenodd" clip-rule="evenodd" d="M91.7787 32.58L91.0298 33.1941L91.0314 33.2229C91.0867 33.2172 91.1416 33.2081 91.1958 33.1958C91.8987 32.9993 92.6024 32.7913 93.2798 32.4238C93.632 32.231 93.9757 32.009 94.3195 31.787L94.3197 31.7869L94.3197 31.7869L94.3202 31.7866C94.4083 31.7297 94.4964 31.6727 94.5847 31.6163V34.6921C94.4339 34.7848 94.284 34.8802 94.1356 34.9797C93.9212 35.1234 93.7091 35.2737 93.497 35.424C93.4732 35.4409 93.4494 35.4577 93.4256 35.4746H89.9342V16.5461H94.5847V29.7727C94.4552 29.892 94.3303 30.0165 94.2104 30.1458C93.9016 30.4787 93.5983 30.8199 93.295 31.1611L93.2949 31.1613C93.1937 31.2751 93.0926 31.3888 92.9913 31.5023C92.7746 31.762 92.5118 31.9794 92.216 32.1435C92.043 32.2321 91.8721 32.3304 91.7012 32.4287L91.7012 32.4288L91.701 32.4289C91.634 32.4674 91.5671 32.5059 91.5 32.5439C91.4757 32.5602 91.4529 32.5787 91.4318 32.5989L91.4367 32.6343L91.7655 32.5398L91.7787 32.58ZM96.5536 30.3542V33.5109C96.9549 33.2505 97.3521 32.9792 97.7489 32.7082L97.749 32.7081C98.091 32.4745 98.4326 32.2412 98.7762 32.0153C99.6394 31.453 100.42 30.7575 101.173 29.988C101.183 29.9773 101.194 29.9666 101.204 29.9559V26.867C101.03 26.9921 100.855 27.1172 100.681 27.2422C100.507 27.3647 100.368 27.5298 100.277 27.7215C100.191 27.9024 100.048 28.0505 99.8705 28.1433C99.8071 28.1778 99.7436 28.2121 99.6802 28.2465C99.1922 28.5106 98.704 28.7749 98.2427 29.1248C98.1419 29.201 98.0413 29.2776 97.9407 29.3543L97.9403 29.3546C97.5643 29.6412 97.1882 29.9278 96.8024 30.1878C96.7197 30.2436 96.6367 30.2991 96.5536 30.3542ZM101.204 23.9504C101.171 23.9639 101.138 23.9771 101.104 23.9901C100.848 24.0838 100.623 24.2465 100.453 24.4603C99.9324 25.1257 99.3521 25.7423 98.7195 26.3026C98.2795 26.6904 97.8459 27.0905 97.4122 27.4907L97.4116 27.4912C97.2865 27.6067 97.1613 27.7222 97.0359 27.8374C96.8768 27.9847 96.7164 28.1307 96.5536 28.2723V16.5461H101.204V23.9504ZM106.592 21.6937C106.645 21.6595 106.7 21.6269 106.756 21.5954C107.035 21.4252 107.304 21.2399 107.562 21.0404C107.74 20.9289 107.868 20.7518 107.918 20.5472C107.956 20.3433 108.062 20.2143 108.179 20.0737C109.159 18.9137 110.136 17.7561 111.067 16.5461H111.243V22.1726C110.907 22.4258 110.574 22.6823 110.258 22.9691C109.495 23.6637 108.705 24.2992 107.9 24.9034C107.704 25.051 107.497 25.1765 107.292 25.3015L107.291 25.3019L107.204 25.3547C107.149 25.3763 107.09 25.3877 107.031 25.3884C107.04 25.3647 107.05 25.341 107.059 25.3174L107.059 25.3169L107.059 25.3169L107.059 25.3169L107.059 25.3167C107.073 25.2827 107.087 25.2488 107.1 25.215C107.102 25.1986 107.102 25.1821 107.1 25.1657L106.986 25.2446C106.874 25.3371 106.762 25.4288 106.65 25.5206L106.65 25.5206L106.65 25.5207L106.65 25.5208L106.65 25.5209L106.65 25.5209C106.63 25.5366 106.611 25.5522 106.592 25.5679V21.6937ZM103.47 30.9614C103.086 31.1909 102.712 31.4505 102.342 31.7193C102.259 31.7769 102.181 31.8311 102.101 31.8837C102.092 31.8929 102.084 31.9031 102.077 31.9141L102.212 31.9659C102.18 31.9901 102.147 32.0123 102.113 32.0325C101.652 32.2512 101.187 32.4049 100.716 32.4033C100.539 32.4106 100.372 32.4856 100.249 32.6129C100.083 32.7617 99.925 32.9195 99.7759 33.0856C99.3575 33.5618 98.884 33.9865 98.3652 34.3508C98.1456 34.5105 97.9273 34.6726 97.7091 34.8346L97.7091 34.8346L97.709 34.8347L97.709 34.8347L97.7089 34.8348L97.7089 34.8348C97.4779 35.0063 97.247 35.1777 97.0145 35.3463C96.9485 35.3922 96.8806 35.435 96.811 35.4746H101.944C102.289 35.215 102.628 34.9466 102.959 34.6698C103.819 33.9394 104.684 33.219 105.553 32.5087V30.9614H103.47ZM106.592 31.5376V28.6887C106.815 28.5089 107.04 28.3339 107.266 28.1588C107.663 27.8501 108.06 27.5413 108.445 27.2061C108.41 27.2126 108.382 27.2349 108.354 27.257C108.34 27.2681 108.326 27.2792 108.311 27.2883C108.252 27.3245 108.193 27.361 108.134 27.3975L108.134 27.3975L108.133 27.3979C107.918 27.5311 107.702 27.6644 107.484 27.7856C107.432 27.8141 107.373 27.816 107.315 27.818C107.287 27.8189 107.259 27.8198 107.233 27.8235L107.225 27.7667C107.282 27.6955 107.344 27.6276 107.409 27.5637L107.426 27.5489C107.659 27.3459 107.888 27.1455 108.129 26.9512C108.859 26.3511 109.559 25.7074 110.146 24.896C110.217 24.8013 110.294 24.7109 110.376 24.6256C110.482 24.5121 110.52 24.5195 110.564 24.6593C110.577 24.7014 110.585 24.7449 110.595 24.7999L110.595 24.7999L110.6 24.8281L110.605 24.8541C110.667 24.7759 110.728 24.6988 110.789 24.6222C110.945 24.4256 111.098 24.2326 111.243 24.0345V27.2034C111.02 27.4498 110.787 27.6797 110.53 27.8744L110.458 27.929L110.458 27.9291C110.192 28.1307 109.926 28.3327 109.652 28.5099C108.712 29.1082 107.889 29.8742 107.225 30.7698C107.028 31.0371 106.816 31.2934 106.592 31.5376ZM105.553 34.3072C105.531 34.3206 105.509 34.334 105.487 34.3474L105.487 34.3474L105.487 34.3474C105.224 34.5087 104.962 34.67 104.7 34.835C104.524 34.9446 104.348 35.0542 104.17 35.1638C104.012 35.2593 103.859 35.363 103.712 35.4746H105.553V34.3072ZM106.592 33.6567C106.821 33.5078 107.049 33.3548 107.273 33.195C108.492 32.3293 109.565 31.2006 110.611 30.0365C110.635 30.0051 110.655 29.9719 110.673 29.937L110.65 29.9124L108.88 31.4932L108.844 31.4587C108.872 31.3924 108.907 31.329 108.947 31.2696C109.066 31.1325 109.184 30.9944 109.303 30.8563L109.303 30.8562L109.303 30.856L109.303 30.856L109.303 30.8558C109.611 30.4974 109.919 30.1381 110.234 29.7899C110.592 29.3943 110.935 28.985 111.243 28.5421V30.9614H113.083C112.821 31.2149 112.547 31.4561 112.261 31.684C112.12 31.7934 111.986 31.916 111.852 32.0386C111.812 32.0753 111.772 32.112 111.731 32.1484L108.32 35.2313C108.298 35.251 108.277 35.2714 108.256 35.2919L108.224 35.3225L108.244 35.3792L108.882 34.9838L108.894 35.015C108.855 35.0538 108.817 35.0933 108.778 35.1329L108.778 35.133L108.778 35.1331C108.682 35.2311 108.585 35.3295 108.483 35.4179C108.462 35.4368 108.44 35.4557 108.418 35.4746H106.592V33.6567ZM111.401 35.4746H115.592V30.9614H114.714C114.176 31.7128 113.579 32.4206 112.929 33.0782C112.352 33.6729 111.777 34.2697 111.203 34.8687C111.177 34.896 111.153 34.9267 111.129 34.9574L111.129 34.9575L111.129 34.9579C111.119 34.9696 111.11 34.9813 111.101 34.9929L111.125 35.0381L113.175 33.7227L113.187 33.7449C113.182 33.7509 113.177 33.7571 113.171 33.7632L113.158 33.779L113.158 33.7791C113.141 33.7996 113.124 33.8199 113.105 33.8378C112.891 34.044 112.676 34.2499 112.461 34.4558L112.46 34.4568L112.459 34.4578L112.459 34.458L112.458 34.4583L112.458 34.4585L112.457 34.4594C112.105 34.7972 111.752 35.1351 111.401 35.4746ZM114.475 30.9614H114.277C114.196 31.0704 114.115 31.1794 114.035 31.2885L113.751 31.6716C113.723 31.717 113.698 31.7645 113.678 31.8139L113.709 31.8377L114.475 30.9614ZM118.758 24.4482L117.071 35.4746H121.776L122.074 32.4929H124.755L125.056 35.4746H129.76L126.861 16.5461H119.967L118.919 23.3967C118.971 23.3363 119.022 23.2759 119.074 23.2155L119.074 23.2152L119.074 23.215C119.25 23.0085 119.426 22.802 119.6 22.5934C119.637 22.549 119.674 22.5048 119.711 22.4606L119.711 22.4606C119.855 22.2901 120 22.1191 120.132 21.9357C120.926 20.8481 121.836 19.9158 122.779 19.0272C122.791 19.0149 122.805 19.0054 122.821 18.9994C122.837 18.9934 122.854 18.9911 122.872 18.9926C122.81 19.0788 122.744 19.1611 122.673 19.2393C121.812 20.0959 121.093 21.1046 120.431 22.1667C119.993 22.8682 119.494 23.5065 118.995 24.1449C118.916 24.2459 118.837 24.3469 118.758 24.4482ZM110.875 16.5461C110.569 16.8657 110.263 17.1861 109.962 17.5112C109.254 18.2703 108.45 18.9336 107.571 19.4842C107.244 19.6905 106.918 19.8984 106.592 20.107V16.5461H110.875ZM56.8092 16.2173C57.8664 16.2173 58.7509 16.3359 59.4629 16.5732C60.1445 16.7895 60.7456 17.2053 61.1884 17.7669C61.6269 18.3237 61.9368 19.0669 62.1182 19.9964C62.2996 20.9259 62.39 22.0735 62.3895 23.4393H57.8179C57.8179 22.398 57.754 21.6639 57.6263 21.2369C57.4986 20.81 57.1972 20.5957 56.722 20.5941H56.6949C56.3299 20.5941 56.0745 20.7311 55.9287 21.0051C55.7829 21.2791 55.71 21.6354 55.71 22.0738V29.9518C55.6997 30.3149 55.7763 30.6751 55.9337 31.0025C56.08 31.2853 56.362 31.4267 56.782 31.4267H56.8092C57.1742 31.4267 57.415 31.2943 57.5343 31.0296C57.6535 30.7649 57.7118 30.4056 57.7118 29.9494V29.0451H57.0542V25.3539H62.3607V31.3929C62.3607 33.0289 61.9497 35.4746 59.1496 35.4746H55.9337C54.384 35.4746 53.1846 35.3381 52.337 34.4059C51.4895 33.4736 51.0645 32.1443 51.0645 30.4122V21.606C51.0645 19.8742 51.5303 18.543 52.462 17.6124C53.3937 16.6818 54.8337 16.2167 56.782 16.2173H56.8092ZM73.0026 16.5461L75.9037 35.4746H71.1973L70.8964 32.4929H68.2156L67.9147 35.4746H63.2099L66.1094 16.5461H73.0026ZM70.4311 27.9525L69.5564 19.4727L68.6809 27.9525H70.4311ZM88.7586 35.4746L86.2718 28.8001C87.603 27.9616 88.2687 26.5394 88.2687 24.5335V22.0163C88.2665 20.1375 87.7458 18.7562 86.7067 17.8721C85.6676 16.9881 84.0903 16.5461 81.9748 16.5461H76.9412V35.4746H81.5917V29.8129H82.2206L83.8343 35.4746H88.7586ZM81.9715 20.9237C83.0676 20.9237 83.6157 21.417 83.6157 22.4035V24.1208C83.6157 25.1073 83.0676 25.6005 81.9715 25.6005H81.5884V20.9237H81.9715ZM122.539 27.9525L123.414 19.4727L124.289 27.9525H122.539Z" fill="#C68C43"/>
<path d="M54.2125 39.0667C55.4008 39.0667 56.2831 39.3843 56.8596 40.0196C57.4361 40.6431 57.7243 41.4902 57.7243 42.5608V44.3961C57.7243 45.4667 57.4361 46.3196 56.8596 46.9549C56.2831 47.5784 55.4008 47.8902 54.2125 47.8902H53.1537V51.2784H51.3008V39.0667H54.2125ZM55.8714 42.5608C55.8714 42.0079 55.7361 41.5843 55.4655 41.2902C55.2067 40.9843 54.789 40.8314 54.2125 40.8314H53.1537V46.1255H54.2125C54.789 46.1255 55.2067 45.9784 55.4655 45.6843C55.7361 45.3784 55.8714 44.949 55.8714 44.3961V42.5608Z" fill="white"/>
<path d="M58.8613 48.1549V42.1902C58.8613 41.1431 59.1319 40.3314 59.6731 39.7549C60.2143 39.1667 61.0731 38.8726 62.2495 38.8726H62.2672C63.4437 38.8726 64.3025 39.1667 64.8437 39.7549C65.3848 40.3314 65.6554 41.1431 65.6554 42.1902V48.1549C65.6554 49.202 65.3848 50.0196 64.8437 50.6079C64.3025 51.1843 63.4437 51.4726 62.2672 51.4726H62.2495C61.0731 51.4726 60.2084 51.1784 59.6554 50.5902C59.1143 50.002 58.8495 49.1902 58.8613 48.1549ZM60.7143 47.9784C60.7143 48.4961 60.826 48.9196 61.0495 49.249C61.2848 49.5667 61.6848 49.7255 62.2495 49.7255H62.2672C62.8319 49.7255 63.226 49.5667 63.4495 49.249C63.6848 48.9196 63.8025 48.4961 63.8025 47.9784V42.3667C63.8025 41.849 63.6848 41.4314 63.4495 41.1137C63.226 40.7843 62.8319 40.6196 62.2672 40.6196H62.2495C61.6848 40.6196 61.2848 40.7843 61.0495 41.1137C60.826 41.4314 60.7143 41.849 60.7143 42.3667V47.9784Z" fill="white"/>
<path d="M67.2417 51.2784V39.0667H69.0947V44.4137H70.3476L72.0417 39.0667H74.0182L71.8476 45.349L74.1241 51.2784H72.1476L70.3829 46.2843H69.0947V51.2784H67.2417Z" fill="white"/>
<path d="M80.9898 39.0667V40.8314H77.1427V44.3079H80.4604V46.0549H77.1427V49.5137H80.9898V51.2784H75.2898V39.0667H80.9898Z" fill="white"/>
<path d="M89.061 51.2784H87.0845L85.5315 47.0784H85.2845H84.2257V51.2784H82.3727V39.0667H85.2845C86.4727 39.0667 87.3551 39.349 87.9315 39.9137C88.508 40.4784 88.7963 41.3137 88.7963 42.4196V43.7961C88.7963 45.2902 88.2433 46.2726 87.1374 46.7432L89.061 51.2784ZM84.2257 40.8314V45.3843H85.2845C85.861 45.3843 86.2786 45.2314 86.5374 44.9255C86.808 44.6196 86.9433 44.1902 86.9433 43.6373V42.5608C86.9433 42.0079 86.808 41.5843 86.5374 41.2902C86.2786 40.9843 85.861 40.8314 85.2845 40.8314H84.2257Z" fill="white"/>
<defs>
<linearGradient id="paint0_linear_1286_12" x1="20.8214" y1="30.4385" x2="22.2723" y2="-5.32545" gradientUnits="userSpaceOnUse">
<stop stop-color="#C68C43"/>
<stop offset="1" stop-color="#875A23"/>
</linearGradient>
</defs>
</svg>
